<svg width="104" height="37" viewBox="0 0 104 37" fill="none" xmlns="http://www.w3.org/2000/svg">
<path d="M18.4626 8.72118V12.9889H7.481V19.7494H15.8965V23.9416H7.481V35.0831H2.19775V8.72118H18.4626ZM27.4358 11.6671C26.5049 11.6671 25.725 11.3775 25.0961 10.7984C24.4923 10.1941 24.1904 9.45136 24.1904 8.57011C24.1904 7.68886 24.4923 6.95868 25.0961 6.37957C25.725 5.77529 26.5049 5.47314 27.4358 5.47314C28.3666 5.47314 29.134 5.77529 29.7378 6.37957C30.3667 6.95868 30.6812 7.68886 30.6812 8.57011C30.6812 9.45136 30.3667 10.1941 29.7378 10.7984C29.134 11.3775 28.3666 11.6671 27.4358 11.6671ZM30.0397 14.1598V35.0831H24.7564V14.1598H30.0397ZM49.3925 13.8576C51.8832 13.8576 53.8959 14.6507 55.4305 16.237C56.9652 17.7981 57.7325 19.9886 57.7325 22.8086V35.0831H52.4493V23.5262C52.4493 21.8644 52.0342 20.5929 51.2039 19.7116C50.3737 18.8052 49.2416 18.352 47.8076 18.352C46.3484 18.352 45.1911 18.8052 44.3357 19.7116C43.5055 20.5929 43.0904 21.8644 43.0904 23.5262V35.0831H37.8071V14.1598H43.0904V16.7657C43.7948 15.8593 44.6879 15.1543 45.7697 14.6507C46.8767 14.122 48.0843 13.8576 49.3925 13.8576Z" fill="white"/>
<path d="M72.7752 21.8125C72.3858 21.289 72.3858 20.5688 72.7752 20.0454L82.0416 7.58771C82.3168 7.2177 82.7484 7 83.2067 7L92.1756 7C92.3508 7 92.5159 7.08329 92.6212 7.22485C92.7702 7.42511 92.7702 7.70066 92.6212 7.90092L83.5877 20.0454C83.1983 20.5688 83.1983 21.289 83.5877 21.8125L92.5578 33.8716C92.7443 34.1223 92.7443 34.4675 92.5578 34.7185C92.4258 34.8956 92.219 35 91.9995 35H83.3125C82.8542 35 82.4226 34.7824 82.1474 34.4123L72.7752 21.8125Z" fill="url(#paint0_linear_135_966)"/>
<path d="M82.9577 21.8125C83.3471 21.289 83.3471 20.5688 82.9577 20.0454L73.6913 7.58771C73.4161 7.2177 72.9845 7 72.5262 7L63.5574 7C63.3821 7 63.2171 7.08329 63.1118 7.22485C62.9627 7.42511 62.9627 7.70066 63.1118 7.90092L72.1452 20.0454C72.5346 20.5688 72.5346 21.289 72.1452 21.8125L63.1751 33.8716C62.9887 34.1223 62.9887 34.4675 63.1751 34.7185C63.3071 34.8956 63.5139 35 63.7334 35H72.4204C72.8787 35 73.3103 34.7824 73.5855 34.4123L82.9577 21.8125Z" fill="url(#paint1_linear_135_966)"/>
<defs>
<linearGradient id="paint0_linear_135_966" x1="78.7624" y1="7.04025" x2="89.5015" y2="20.9171" gradientUnits="userSpaceOnUse">
<stop stop-color="#009DC8"/>
<stop offset="1" stop-color="#250E66"/>
</linearGradient>
<linearGradient id="paint1_linear_135_966" x1="68.4606" y1="14.4729" x2="87.7522" y2="21.5971" gradientUnits="userSpaceOnUse">
<stop stop-color="#00C8FF"/>
<stop offset="1" stop-color="#926EF8"/>
</linearGradient>
</defs>
</svg>
