<svg width="237" height="76" viewBox="0 0 237 76" fill="none" xmlns="http://www.w3.org/2000/svg">
<path d="M42.1 0.800049C45.7 0.800049 49.1 2.20005 51.7 4.80005L70.5 23.6001C73 26.1001 74.5 29.6 74.5 33.2V54.6001L54.1 75.1001V28C54.1 24.2 51.1 21.2 47.3 21.2H29.4V0.800049H42.1ZM45.3 75.1001V54.7H27.4C23.6 54.7 20.6 51.7 20.6 47.9V0.800049L0.199951 21.3V42.7C0.199951 46.3 1.59995 49.8 4.19995 52.3L23 71.1001C25.5 73.6001 29 75.1001 32.6 75.1001H45.3ZM29.4 45.8H45.3V30H29.4V45.8Z" fill="url(#paint0_linear_80_199)"/>
<path d="M166.6 39.6001C166.6 38.2001 166.5 36.7 165.4 35.9C162.4 33.8 154.5 34.2 154.1 38.3H146.2C147.4 32.7 149.8 29.6001 160.5 29.6001C165.3 29.6001 168.9 30.4001 171.2 32.1001C173.5 33.8001 174.7 36.6 174.7 40.5V55.6001H157.8C152 55.7001 145.9 55.9 145.9 47.8C145.9 41.2 149.9 39.6 155.8 39.5C157.1 39.6 166.6 39.6001 166.6 39.6001ZM166.7 44.7H160.4C156 44.7 154.2 44.8 154.2 47.5C154.2 50.4 157.9 50.1001 160.2 50.1001H166.7V44.7Z" fill="white"/>
<path d="M203.4 42.5001C201.5 41.2001 198.6 40.4 194.6 40.2C190.4 39.9 188.3 39.0001 188.3 37.3001C188.3 35.7001 189.6 34.8 192.1 34.7C194.2 34.6 197.5 34.6 198.2 36.7C198.3 36.9 198.3 37.2 198.3 37.4V37.8001H205.3V37.1001C205.2 30.3001 197 29.3 191.7 29.4C187.7 29.5 184.7 30.1001 182.6 31.6001C180.6 33.0001 179.6 35 179.6 37.4C179.6 39.7 180.5 41.5 182.4 42.7C184.4 44.1 187.7 44.9001 192.2 45.3001C194.1 45.4001 195.5 45.7001 196.3 46.1001C197.1 46.5001 197.5 47.1001 197.5 48.0001C197.5 49.8001 195.4 50.5 191.1 50.2001C188.4 50 185.8 49.6001 183.2 48.8001C182.8 48.7001 182.5 48.6 182.1 48.4L179.3 53.0001C180 53.4001 180.8 53.8001 181.7 54.1001C184.8 55.3001 189.1 56.0001 194.2 56.1001C202.2 56.1001 206.3 53.5001 206.3 48.3001C206.3 45.9001 205.3 43.9001 203.4 42.5001Z" fill="white"/>
<path d="M234 42.5001C232.1 41.2001 229.2 40.4 225.2 40.2C221 39.9 218.9 39.0001 218.9 37.3001C218.9 35.7001 220.2 34.8 222.7 34.7C224.8 34.6 228.1 34.6 228.8 36.7C228.9 36.9 228.9 37.2 228.9 37.4V37.8001H235.9V37.1001C235.8 30.3001 227.6 29.3 222.3 29.4C218.3 29.5 215.3 30.1001 213.2 31.6001C211.2 33.0001 210.2 35 210.2 37.4C210.2 39.7 211.1 41.5 213 42.7C215 44.1 218.3 44.9001 222.8 45.3001C224.7 45.4001 226.1 45.7001 226.9 46.1001C227.7 46.5001 228.1 47.1001 228.1 48.0001C228.1 49.8001 226 50.5 221.7 50.2001C219 50 216.4 49.6001 213.8 48.8001C213.4 48.7001 213.1 48.6 212.7 48.4L209.9 53.0001C210.6 53.4001 211.4 53.8001 212.3 54.1001C215.4 55.3001 219.7 56.0001 224.8 56.1001C232.8 56.1001 236.9 53.5001 236.9 48.3001C237 45.9001 236 43.9001 234 42.5001Z" fill="white"/>
<path d="M110.9 34.9L107.4 41.3H118.8V44.7C115.4 49.2 106.2 49.6 102.1 45.9C99.6999 43.8 98.6999 41.5001 98.7999 37.6001C98.8999 34.4001 99.4999 32.5 100.9 30.4C104.2 25.6 113.2 25 116.8 28.5C117.4 29.1 117.7 29.9 117.7 30.8H126.6C126.6 29.8 126.5 28.9 126.2 28C124.3 21.7 117.5 19.4 109.2 19.4C97.9999 19.4 90.0999 25.8001 89.9999 37.6001C89.8999 43.3001 91.6999 47.8 95.1999 51.2C98.6999 54.6 103.6 56.2 109.8 56.2C118.7 56.3 124.3 53.5001 126.8 48.1001V34.8H110.9V34.9Z" fill="white"/>
<path d="M140.6 55.7H132.4V19H140.6V55.7Z" fill="white"/>
<defs>
<linearGradient id="paint0_linear_80_199" x1="19.1764" y1="69.4084" x2="55.5274" y2="6.44655" gradientUnits="userSpaceOnUse">
<stop offset="0.0829434" stop-color="#E0C6FC"/>
<stop offset="0.31" stop-color="#91C8FE"/>
<stop offset="0.5158" stop-color="#4DCAFF"/>
<stop offset="0.9535" stop-color="#8477FD"/>
</linearGradient>
</defs>
</svg>
