<svg width="21" height="20" viewBox="0 0 21 20" fill="none" xmlns="http://www.w3.org/2000/svg">
<path d="M19.7751 7.9575C18.9843 6.20978 17.738 4.70693 16.1667 3.60644C14.5954 2.50595 12.7571 1.84833 10.8443 1.7025V0.833333C10.8443 0.61232 10.7565 0.400358 10.6002 0.244078C10.444 0.0877974 10.232 0 10.011 0C9.78997 0 9.578 0.0877974 9.42172 0.244078C9.26544 0.400358 9.17765 0.61232 9.17765 0.833333V1.7025C7.26276 1.8468 5.42197 2.50366 3.8483 3.60419C2.27463 4.70471 1.02605 6.20837 0.233479 7.9575C0.0342686 8.45749 -0.0391366 8.99875 0.0197096 9.53374C0.0785557 10.0687 0.267853 10.5811 0.570979 11.0258C0.877313 11.4797 1.29038 11.8515 1.77392 12.1086C2.25746 12.3656 2.7967 12.5 3.34431 12.5H9.17765V17.5C9.17765 17.721 9.08985 17.933 8.93357 18.0893C8.77729 18.2455 8.56533 18.3333 8.34431 18.3333C8.1233 18.3333 7.91134 18.2455 7.75506 18.0893C7.59878 17.933 7.51098 17.721 7.51098 17.5C7.51098 17.279 7.42318 17.067 7.2669 16.9107C7.11062 16.7545 6.89866 16.6667 6.67765 16.6667C6.45663 16.6667 6.24467 16.7545 6.08839 16.9107C5.93211 17.067 5.84431 17.279 5.84431 17.5C5.84431 18.163 6.10771 18.7989 6.57655 19.2678C7.04539 19.7366 7.68127 20 8.34431 20C9.00735 20 9.64324 19.7366 10.1121 19.2678C10.5809 18.7989 10.8443 18.163 10.8443 17.5V12.5H16.6635C17.2112 12.5 17.7506 12.3656 18.2342 12.1086C18.7179 11.8515 19.1311 11.4798 19.4376 11.0258C19.7406 10.581 19.9297 10.0687 19.9886 9.53371C20.0474 8.99875 19.9741 8.45754 19.7751 7.9575ZM18.0576 10.0917C17.9051 10.3213 17.6977 10.5093 17.4544 10.6388C17.211 10.7683 16.9392 10.8351 16.6635 10.8333H3.34431C3.06854 10.8351 2.79667 10.7682 2.55326 10.6385C2.30984 10.5089 2.10257 10.3207 1.95015 10.0908C1.79905 9.87187 1.70471 9.6188 1.67562 9.35437C1.64653 9.08993 1.68359 8.8224 1.78348 8.57583C2.99515 5.53833 6.45598 3.33333 10.011 3.33333C11.739 3.32702 13.4324 3.81791 14.8892 4.74746C16.3459 5.67701 17.5045 7.00597 18.2268 8.57583C18.3268 8.82266 18.3637 9.09051 18.3341 9.35517C18.3046 9.61983 18.2096 9.87295 18.0576 10.0917Z" fill="white"/>
</svg>
