<svg width="18" height="20" viewBox="0 0 18 20" fill="none" xmlns="http://www.w3.org/2000/svg">
<path d="M9 0.210449C8.64883 0.210449 8.29766 0.300671 7.98438 0.48114L1.26562 4.36084C0.639062 4.72334 0.25 5.39674 0.25 6.12018V13.8781C0.25 14.6015 0.639062 15.2749 1.26562 15.6374L7.98438 19.5171C8.29688 19.6983 8.64844 19.789 9 19.789C9.35156 19.789 9.70312 19.6983 10.0156 19.5171L16.7344 15.6374C17.3609 15.2765 17.75 14.603 17.75 13.8796V6.12018C17.75 5.39674 17.3609 4.72334 16.7344 4.36084L10.0156 0.48114C9.70234 0.300671 9.35117 0.210449 9 0.210449ZM9 1.14703C9.18906 1.14703 9.37813 1.19586 9.54688 1.29352L16.2656 5.17322C16.6031 5.36853 16.8125 5.73112 16.8125 6.12018V13.8781C16.8125 14.2687 16.6031 14.6312 16.2656 14.8265L9.54688 18.7062C9.20938 18.9016 8.79062 18.9016 8.45312 18.7062L1.73438 14.8265C1.39688 14.6312 1.1875 14.2686 1.1875 13.8796V6.12018C1.1875 5.73112 1.39688 5.36697 1.73438 5.17322L8.45312 1.29352C8.62187 1.19586 8.81094 1.14703 9 1.14703ZM9 2.49438C8.91914 2.49438 8.83828 2.51537 8.76562 2.55756C8.62031 2.64193 8.53125 2.79686 8.53125 2.96405V17.0372C8.53125 17.2966 8.74063 17.506 9 17.506C9.25937 17.506 9.46875 17.2966 9.46875 17.0372V10.4686H11.3438C11.6031 10.4686 11.8125 10.2593 11.8125 9.99988C11.8125 9.7405 11.6031 9.53113 11.3438 9.53113H9.46875V3.7749L13.3811 6.03412C13.378 6.05443 13.375 6.07332 13.375 6.09363V13.9061C13.375 14.1655 13.5844 14.3749 13.8438 14.3749C14.1031 14.3749 14.3125 14.1655 14.3125 13.9061V6.57184L15.1719 7.06866C15.3969 7.19835 15.6828 7.12185 15.8124 6.89685C15.9421 6.67185 15.8641 6.38567 15.6406 6.25598L9.23438 2.55756C9.16172 2.51537 9.08086 2.49438 9 2.49438ZM6.34375 4.84363C6.08437 4.84363 5.875 5.053 5.875 5.31238V12.4578L3.33594 6.68567C3.24688 6.48254 3.02822 6.37028 2.81104 6.41559C2.59229 6.46246 2.4375 6.653 2.4375 6.87488V13.1249C2.4375 13.3843 2.64687 13.5936 2.90625 13.5936C3.16563 13.5936 3.375 13.3843 3.375 13.1249V9.10449L5.91406 14.8766C5.99062 15.0485 6.16094 15.1561 6.34375 15.1561C6.375 15.1561 6.40768 15.1529 6.44049 15.1467C6.65768 15.0998 6.8125 14.9093 6.8125 14.6874V5.31238C6.8125 5.053 6.60313 4.84363 6.34375 4.84363Z" fill="white"/>
</svg>
